<mxfile host="app.diagrams.net" agent="Mozilla/5.0 (Windows NT 10.0; Win64; x64) AppleWebKit/537.36 (KHTML, like Gecko) Chrome/136.0.0.0 Safari/537.36 Edg/136.0.0.0" version="26.2.15">
  <diagram name="第 1 页" id="QxObuR8911lan4rMX1sj">
    <mxGraphModel dx="1876" dy="1212" grid="1" gridSize="10" guides="1" tooltips="1" connect="1" arrows="1" fold="1" page="1" pageScale="1" pageWidth="827" pageHeight="1169" math="0" shadow="0">
      <root>
        <mxCell id="0" />
        <mxCell id="1" parent="0" />
        <mxCell id="rmKieTnqbq2XVsHeavfm-43" value="数据库" style="whiteSpace=wrap;strokeWidth=2;verticalAlign=top;fontSize=18;" vertex="1" parent="1">
          <mxGeometry x="827" y="420" width="272" height="124" as="geometry" />
        </mxCell>
        <mxCell id="rmKieTnqbq2XVsHeavfm-44" value="后端服务" style="whiteSpace=wrap;strokeWidth=2;verticalAlign=top;fontSize=18;" vertex="1" parent="1">
          <mxGeometry x="325" y="224" width="1265" height="148" as="geometry" />
        </mxCell>
        <mxCell id="rmKieTnqbq2XVsHeavfm-45" value="前端界面" style="whiteSpace=wrap;strokeWidth=2;verticalAlign=top;fontSize=18;" vertex="1" parent="1">
          <mxGeometry x="330" y="25" width="1260" height="148" as="geometry" />
        </mxCell>
        <mxCell id="rmKieTnqbq2XVsHeavfm-75" style="edgeStyle=orthogonalEdgeStyle;rounded=0;orthogonalLoop=1;jettySize=auto;html=1;exitX=0.5;exitY=1;exitDx=0;exitDy=0;fontSize=18;" edge="1" parent="1" source="rmKieTnqbq2XVsHeavfm-46" target="rmKieTnqbq2XVsHeavfm-48">
          <mxGeometry relative="1" as="geometry" />
        </mxCell>
        <mxCell id="rmKieTnqbq2XVsHeavfm-46" value="浏览器请求项目列表页面" style="rounded=1;arcSize=20;strokeWidth=2;fontSize=18;" vertex="1" parent="1">
          <mxGeometry x="365" y="60" width="230" height="78" as="geometry" />
        </mxCell>
        <mxCell id="rmKieTnqbq2XVsHeavfm-47" value="在页面上渲染项目列表" style="rounded=1;arcSize=20;strokeWidth=2;fontSize=18;" vertex="1" parent="1">
          <mxGeometry x="1325" y="60" width="230" height="78" as="geometry" />
        </mxCell>
        <mxCell id="rmKieTnqbq2XVsHeavfm-48" value="处理项目列表请求" style="whiteSpace=wrap;strokeWidth=2;fontSize=18;" vertex="1" parent="1">
          <mxGeometry x="350" y="259" width="260" height="78" as="geometry" />
        </mxCell>
        <mxCell id="rmKieTnqbq2XVsHeavfm-76" style="edgeStyle=orthogonalEdgeStyle;rounded=0;orthogonalLoop=1;jettySize=auto;html=1;exitX=0.5;exitY=1;exitDx=0;exitDy=0;entryX=0;entryY=0.5;entryDx=0;entryDy=0;fontSize=18;" edge="1" parent="1" source="rmKieTnqbq2XVsHeavfm-49" target="rmKieTnqbq2XVsHeavfm-52">
          <mxGeometry relative="1" as="geometry" />
        </mxCell>
        <mxCell id="rmKieTnqbq2XVsHeavfm-49" value="查询当前用户的所有项目记录" style="whiteSpace=wrap;strokeWidth=2;fontSize=18;" vertex="1" parent="1">
          <mxGeometry x="660" y="259" width="260" height="78" as="geometry" />
        </mxCell>
        <mxCell id="rmKieTnqbq2XVsHeavfm-50" value="格式化项目列表数据供模板使用" style="whiteSpace=wrap;strokeWidth=2;fontSize=18;" vertex="1" parent="1">
          <mxGeometry x="1000" y="259" width="260" height="78" as="geometry" />
        </mxCell>
        <mxCell id="rmKieTnqbq2XVsHeavfm-78" style="edgeStyle=orthogonalEdgeStyle;rounded=0;orthogonalLoop=1;jettySize=auto;html=1;exitX=0.5;exitY=0;exitDx=0;exitDy=0;" edge="1" parent="1" source="rmKieTnqbq2XVsHeavfm-51" target="rmKieTnqbq2XVsHeavfm-47">
          <mxGeometry relative="1" as="geometry" />
        </mxCell>
        <mxCell id="rmKieTnqbq2XVsHeavfm-51" value="返回渲染后的HTML页面 (含项目列表)" style="whiteSpace=wrap;strokeWidth=2;fontSize=18;" vertex="1" parent="1">
          <mxGeometry x="1310" y="259" width="260" height="78" as="geometry" />
        </mxCell>
        <mxCell id="rmKieTnqbq2XVsHeavfm-77" style="edgeStyle=orthogonalEdgeStyle;rounded=0;orthogonalLoop=1;jettySize=auto;html=1;exitX=1;exitY=0.5;exitDx=0;exitDy=0;entryX=0.5;entryY=1;entryDx=0;entryDy=0;fontSize=18;" edge="1" parent="1" source="rmKieTnqbq2XVsHeavfm-52" target="rmKieTnqbq2XVsHeavfm-50">
          <mxGeometry relative="1" as="geometry" />
        </mxCell>
        <mxCell id="rmKieTnqbq2XVsHeavfm-52" value="从数据库返回项目记录列表" style="rounded=1;arcSize=20;strokeWidth=2;fontSize=18;" vertex="1" parent="1">
          <mxGeometry x="852" y="455" width="222" height="54" as="geometry" />
        </mxCell>
        <mxCell id="rmKieTnqbq2XVsHeavfm-54" value="" style="curved=1;startArrow=none;endArrow=block;exitX=1;exitY=0.5;entryX=0;entryY=0.5;rounded=0;fontSize=18;" edge="1" parent="1" source="rmKieTnqbq2XVsHeavfm-48" target="rmKieTnqbq2XVsHeavfm-49">
          <mxGeometry relative="1" as="geometry">
            <Array as="points" />
          </mxGeometry>
        </mxCell>
        <mxCell id="rmKieTnqbq2XVsHeavfm-57" value="" style="curved=1;startArrow=none;endArrow=block;exitX=1;exitY=0.5;entryX=0;entryY=0.5;rounded=0;fontSize=18;" edge="1" parent="1" source="rmKieTnqbq2XVsHeavfm-50" target="rmKieTnqbq2XVsHeavfm-51">
          <mxGeometry relative="1" as="geometry">
            <Array as="points" />
          </mxGeometry>
        </mxCell>
      </root>
    </mxGraphModel>
  </diagram>
</mxfile>
